<svg id="グループ_74" data-name="グループ 74" xmlns="http://www.w3.org/2000/svg" xmlns:xlink="http://www.w3.org/1999/xlink" width="27.342" height="27.188" viewBox="0 0 27.342 27.188">
  <defs>
    <clipPath id="clip-path">
      <rect id="長方形_58" data-name="長方形 58" width="27.342" height="27.188" fill="none"/>
    </clipPath>
  </defs>
  <g id="グループ_73" data-name="グループ 73" clip-path="url(#clip-path)">
    <path id="パス_23" data-name="パス 23" d="M.556,13.582a13.868,13.868,0,0,0,26.63,7.753c.056-.194.108-.388.155-.582a12.867,12.867,0,1,1-19.019-16A13.838,13.838,0,0,0,.556,13.582" transform="translate(0 -4.141)" fill="#222"/>
    <path id="パス_24" data-name="パス 24" d="M36.242,18.368a11.21,11.21,0,0,0,2.074,1.93c-.232-.23-.456-.471-.669-.727a10.3,10.3,0,1,1,18.2-6.357,11.2,11.2,0,1,0-19.608,5.154" transform="translate(-29.335 0)" fill="#222"/>
    <path id="パス_25" data-name="パス 25" d="M88.916,38.184a8.7,8.7,0,0,1-13.533,8.6,9.373,9.373,0,1,0,5.046-15.911c-.071.012-.141.027-.212.041a8.708,8.708,0,0,1,8.7,7.274" transform="translate(-65.731 -26.804)" fill="#e8614f"/>
  </g>
</svg>
